<mxfile host="www.draw.io" modified="2019-12-03T19:13:41.337Z" agent="Mozilla/5.0 (Windows NT 10.0; Win64; x64; rv:71.0) Gecko/20100101 Firefox/71.0" etag="5nycKQ26nduSXpLr14M6" version="12.3.0" type="github" pages="1">
  <diagram name="Page-1" id="97916047-d0de-89f5-080d-49f4d83e522f">
    <mxGraphModel dx="2194" dy="1343" grid="1" gridSize="10" guides="1" tooltips="1" connect="1" arrows="1" fold="1" page="1" pageScale="1.5" pageWidth="1400" pageHeight="850" background="#ffffff" math="0" shadow="0">
      <root>
        <mxCell id="0"/>
        <mxCell id="1" parent="0"/>
        <mxCell id="7HnK9eXFFECSjdr3EfDR-130" value="" style="rounded=1;whiteSpace=wrap;html=1;shadow=0;align=center;fillColor=#eeeeee;strokeColor=none;connectable=0;allowArrows=0;arcSize=3;editable=1;movable=1;resizable=1;" parent="1" vertex="1">
          <mxGeometry x="631" y="480" width="880" height="680" as="geometry"/>
        </mxCell>
        <mxCell id="7HnK9eXFFECSjdr3EfDR-79" value="" style="rounded=1;whiteSpace=wrap;html=1;shadow=0;align=center;fillColor=#eeeeee;strokeColor=none;connectable=0;allowArrows=0;arcSize=3;" parent="1" vertex="1">
          <mxGeometry x="1591" y="480" width="300" height="670" as="geometry"/>
        </mxCell>
        <mxCell id="7HnK9eXFFECSjdr3EfDR-78" value="" style="rounded=1;whiteSpace=wrap;html=1;shadow=0;align=center;fillColor=#eeeeee;strokeColor=none;connectable=0;allowArrows=0;arcSize=3;" parent="1" vertex="1">
          <mxGeometry x="180" y="480" width="371" height="670" as="geometry"/>
        </mxCell>
        <mxCell id="3" value="Non-facilities Staff and Faculty" style="rounded=1;fillColor=#10739E;strokeColor=none;shadow=1;gradientColor=none;fontStyle=1;fontColor=#FFFFFF;fontSize=14;" parent="1" vertex="1">
          <mxGeometry x="721" y="380" width="220" height="60" as="geometry"/>
        </mxCell>
        <mxCell id="5" value="Institute for Digital Research&#xa;and Education (IDRE)" style="rounded=1;fillColor=#10739E;strokeColor=none;shadow=1;gradientColor=none;fontStyle=1;fontColor=#FFFFFF;fontSize=14;align=center;whiteSpace=wrap;" parent="1" vertex="1">
          <mxGeometry x="963" y="710" width="230" height="60" as="geometry"/>
        </mxCell>
        <mxCell id="7" value="Geography" style="rounded=1;fillColor=#10739E;strokeColor=none;shadow=1;gradientColor=none;fontStyle=1;fontColor=#FFFFFF;fontSize=14;whiteSpace=wrap;" parent="1" vertex="1">
          <mxGeometry x="1659.5" y="536.5" width="200" height="60" as="geometry"/>
        </mxCell>
        <mxCell id="33" value="" style="edgeStyle=elbowEdgeStyle;elbow=vertical;strokeWidth=4;endArrow=block;endFill=1;fontStyle=1;strokeColor=#23445D;fontSize=16;rounded=1;" parent="1" target="7" edge="1">
          <mxGeometry x="151" y="160" width="100" height="100" as="geometry">
            <mxPoint x="1760" y="420" as="sourcePoint"/>
            <mxPoint x="438.5" y="325.5" as="targetPoint"/>
            <Array as="points">
              <mxPoint x="1611" y="410"/>
            </Array>
            <mxPoint x="23" y="-73" as="offset"/>
          </mxGeometry>
        </mxCell>
        <mxCell id="7HnK9eXFFECSjdr3EfDR-65" value="&lt;font style=&quot;font-size: 16px&quot;&gt;ArcGIS Online Instance:&lt;br&gt;&lt;font style=&quot;font-size: 16px&quot;&gt;&lt;u&gt;&lt;b&gt;gisucla.maps.arcgis.com&lt;/b&gt;&lt;/u&gt;&lt;/font&gt;&lt;/font&gt;" style="text;html=1;strokeColor=none;fillColor=none;align=center;verticalAlign=middle;whiteSpace=wrap;rounded=0;shadow=0;" parent="1" vertex="1">
          <mxGeometry x="941" y="1110" width="270" height="20" as="geometry"/>
        </mxCell>
        <mxCell id="7HnK9eXFFECSjdr3EfDR-71" value="" style="edgeStyle=elbowEdgeStyle;elbow=vertical;strokeWidth=4;endArrow=block;endFill=1;fontStyle=1;strokeColor=#23445D;entryX=0.5;entryY=0;entryDx=0;entryDy=0;fontSize=16;rounded=1;exitX=0.5;exitY=1;exitDx=0;exitDy=0;" parent="1" source="7HnK9eXFFECSjdr3EfDR-131" target="7HnK9eXFFECSjdr3EfDR-172" edge="1">
          <mxGeometry x="151" y="160" width="100" height="100" as="geometry">
            <mxPoint x="721" y="380" as="sourcePoint"/>
            <mxPoint x="476.5" y="430" as="targetPoint"/>
            <Array as="points">
              <mxPoint x="500" y="330"/>
            </Array>
            <mxPoint x="5" y="-80" as="offset"/>
          </mxGeometry>
        </mxCell>
        <mxCell id="7HnK9eXFFECSjdr3EfDR-72" value="Facilities" style="rounded=1;fillColor=#10739E;strokeColor=none;shadow=1;gradientColor=none;fontStyle=1;fontColor=#FFFFFF;fontSize=14;whiteSpace=wrap;" parent="1" vertex="1">
          <mxGeometry x="231.5" y="540" width="200" height="60" as="geometry"/>
        </mxCell>
        <mxCell id="7HnK9eXFFECSjdr3EfDR-81" value="" style="endArrow=block;html=1;exitX=0.5;exitY=1;exitDx=0;exitDy=0;fontStyle=1;strokeWidth=4;endFill=1;comic=0;" parent="1" source="7HnK9eXFFECSjdr3EfDR-120" edge="1">
          <mxGeometry width="50" height="50" relative="1" as="geometry">
            <mxPoint x="331.5" y="1025" as="sourcePoint"/>
            <mxPoint x="331" y="1100" as="targetPoint"/>
          </mxGeometry>
        </mxCell>
        <mxCell id="7HnK9eXFFECSjdr3EfDR-82" value="&lt;div style=&quot;font-size: 16px&quot;&gt;&lt;font style=&quot;font-size: 16px&quot;&gt;ArcGIS Online Instance:&lt;/font&gt;&lt;/div&gt;&lt;div style=&quot;font-size: 15px&quot;&gt;&lt;font style=&quot;font-size: 15px&quot;&gt;&lt;u&gt;&lt;b&gt;uclafacilities.maps.arcgis.com&lt;/b&gt;&lt;/u&gt;&lt;br&gt;&lt;/font&gt;&lt;/div&gt;" style="text;html=1;strokeColor=none;fillColor=none;align=center;verticalAlign=middle;whiteSpace=wrap;rounded=0;shadow=0;" parent="1" vertex="1">
          <mxGeometry x="259" y="1110" width="145" height="20" as="geometry"/>
        </mxCell>
        <mxCell id="7HnK9eXFFECSjdr3EfDR-93" value="Current ArcGIS Licensing Process at UCLA - November 2019" style="text;html=1;strokeColor=none;fillColor=none;align=center;verticalAlign=middle;whiteSpace=wrap;rounded=0;fontSize=25;" parent="1" vertex="1">
          <mxGeometry x="680" y="140" width="840" height="20" as="geometry"/>
        </mxCell>
        <mxCell id="7HnK9eXFFECSjdr3EfDR-98" value="" style="endArrow=block;html=1;fontStyle=1;strokeWidth=4;endFill=1;comic=0;exitX=0.5;exitY=1;exitDx=0;exitDy=0;entryX=0.5;entryY=0;entryDx=0;entryDy=0;fontSize=14;" parent="1" source="7" target="7HnK9eXFFECSjdr3EfDR-122" edge="1">
          <mxGeometry width="50" height="50" relative="1" as="geometry">
            <mxPoint x="1759" y="700" as="sourcePoint"/>
            <mxPoint x="1759" y="850.5" as="targetPoint"/>
          </mxGeometry>
        </mxCell>
        <mxCell id="7HnK9eXFFECSjdr3EfDR-99" value="&lt;div style=&quot;font-size: 16px&quot;&gt;&lt;font style=&quot;font-size: 16px&quot;&gt;ArcGIS Online Instance:&lt;/font&gt;&lt;/div&gt;&lt;div style=&quot;font-size: 16px&quot;&gt;&lt;font style=&quot;font-size: 16px&quot;&gt;&lt;u&gt;&lt;b&gt;uclageography.maps.arcgis.com&lt;/b&gt;&lt;/u&gt;&lt;br&gt;&lt;/font&gt;&lt;/div&gt;" style="text;html=1;strokeColor=none;fillColor=none;align=center;verticalAlign=middle;whiteSpace=wrap;rounded=0;" parent="1" vertex="1">
          <mxGeometry x="1687" y="1110" width="145" height="20" as="geometry"/>
        </mxCell>
        <mxCell id="4" value="Software Central&#xa;(Office of Information Technology)" style="rounded=1;fillColor=#10739E;strokeColor=none;shadow=1;gradientColor=none;fontStyle=1;fontColor=#FFFFFF;fontSize=14;verticalAlign=middle;whiteSpace=wrap;" parent="1" vertex="1">
          <mxGeometry x="731" y="540" width="200" height="60" as="geometry"/>
        </mxCell>
        <mxCell id="7HnK9eXFFECSjdr3EfDR-106" value="ArcGIS Pro" style="ellipse;whiteSpace=wrap;html=1;rounded=0;shadow=0;align=center;fillColor=#d5e8d4;strokeColor=#82b366;" parent="1" vertex="1">
          <mxGeometry x="1211" y="995" width="120" height="80" as="geometry"/>
        </mxCell>
        <mxCell id="7HnK9eXFFECSjdr3EfDR-110" value="" style="edgeStyle=elbowEdgeStyle;elbow=vertical;strokeWidth=4;endArrow=block;endFill=1;fontStyle=1;strokeColor=#23445D;exitX=0.5;exitY=1;exitDx=0;exitDy=0;entryX=0;entryY=0.5;entryDx=0;entryDy=0;rounded=0;" parent="1" source="7HnK9eXFFECSjdr3EfDR-109" target="7HnK9eXFFECSjdr3EfDR-106" edge="1">
          <mxGeometry x="222" y="512" width="100" height="100" as="geometry">
            <mxPoint x="1087.6428571428573" y="904.9285714285716" as="sourcePoint"/>
            <mxPoint x="1211" y="1000" as="targetPoint"/>
            <Array as="points">
              <mxPoint x="1191" y="1035"/>
              <mxPoint x="1277.5" y="1134.5"/>
            </Array>
            <mxPoint x="2" y="-8" as="offset"/>
          </mxGeometry>
        </mxCell>
        <mxCell id="7HnK9eXFFECSjdr3EfDR-119" value="" style="edgeStyle=elbowEdgeStyle;elbow=vertical;strokeWidth=4;endArrow=block;endFill=1;fontStyle=1;strokeColor=#23445D;exitX=1;exitY=0.5;exitDx=0;exitDy=0;entryX=0;entryY=0.5;entryDx=0;entryDy=0;" parent="1" source="7HnK9eXFFECSjdr3EfDR-63" target="5" edge="1">
          <mxGeometry x="-189" y="317.5" width="100" height="100" as="geometry">
            <mxPoint x="726.6176470588236" y="839.9411764705883" as="sourcePoint"/>
            <mxPoint x="966.6176470588234" y="839.9411764705883" as="targetPoint"/>
            <Array as="points">
              <mxPoint x="931" y="740"/>
            </Array>
            <mxPoint x="2" y="-8" as="offset"/>
          </mxGeometry>
        </mxCell>
        <mxCell id="7HnK9eXFFECSjdr3EfDR-63" value="ArcGIS Desktop" style="ellipse;whiteSpace=wrap;html=1;rounded=0;shadow=0;align=center;fillColor=#fff2cc;strokeColor=#d6b656;" parent="1" vertex="1">
          <mxGeometry x="771" y="700" width="120" height="80" as="geometry"/>
        </mxCell>
        <mxCell id="7HnK9eXFFECSjdr3EfDR-109" value="&lt;div&gt;ArcGIS Online&lt;/div&gt;&lt;div&gt;Account&lt;br&gt;&lt;/div&gt;" style="ellipse;whiteSpace=wrap;html=1;rounded=0;shadow=0;align=center;fillColor=#e1d5e7;strokeColor=#9673a6;" parent="1" vertex="1">
          <mxGeometry x="1016" y="830" width="120" height="80" as="geometry"/>
        </mxCell>
        <mxCell id="7HnK9eXFFECSjdr3EfDR-120" value="&lt;div&gt;ArcGIS Online&lt;/div&gt;&lt;div&gt;Account&lt;br&gt;&lt;/div&gt;" style="ellipse;whiteSpace=wrap;html=1;rounded=0;shadow=0;align=center;fillColor=#e1d5e7;strokeColor=#9673a6;" parent="1" vertex="1">
          <mxGeometry x="271.5" y="830" width="120" height="80" as="geometry"/>
        </mxCell>
        <mxCell id="7HnK9eXFFECSjdr3EfDR-121" value="" style="endArrow=block;html=1;exitX=0.5;exitY=1;exitDx=0;exitDy=0;fontStyle=1;strokeWidth=4;endFill=1;comic=0;fontSize=14;" parent="1" source="7HnK9eXFFECSjdr3EfDR-72" target="7HnK9eXFFECSjdr3EfDR-120" edge="1">
          <mxGeometry width="50" height="50" relative="1" as="geometry">
            <mxPoint x="331.5" y="600" as="sourcePoint"/>
            <mxPoint x="331" y="875" as="targetPoint"/>
          </mxGeometry>
        </mxCell>
        <mxCell id="7HnK9eXFFECSjdr3EfDR-122" value="&lt;div&gt;ArcGIS Online&lt;/div&gt;&lt;div&gt;Account&lt;br&gt;&lt;/div&gt;" style="ellipse;whiteSpace=wrap;html=1;rounded=0;shadow=0;align=center;fillColor=#e1d5e7;strokeColor=#9673a6;" parent="1" vertex="1">
          <mxGeometry x="1699.5" y="830" width="120" height="80" as="geometry"/>
        </mxCell>
        <mxCell id="7HnK9eXFFECSjdr3EfDR-126" value="" style="endArrow=block;html=1;labelBackgroundColor=#ffffff;fontSize=11;exitX=0.5;exitY=1;exitDx=0;exitDy=0;fontStyle=1;strokeWidth=4;endFill=1;" parent="1" source="7HnK9eXFFECSjdr3EfDR-122" edge="1">
          <mxGeometry width="50" height="50" relative="1" as="geometry">
            <mxPoint x="901" y="1300" as="sourcePoint"/>
            <mxPoint x="1760" y="1100" as="targetPoint"/>
          </mxGeometry>
        </mxCell>
        <mxCell id="7HnK9eXFFECSjdr3EfDR-131" value="UCLA" style="rounded=1;fillColor=#10739E;strokeColor=none;shadow=1;gradientColor=none;fontStyle=1;fontColor=#FFFFFF;fontSize=19;" parent="1" vertex="1">
          <mxGeometry x="991" y="210" width="220" height="60" as="geometry"/>
        </mxCell>
        <mxCell id="7HnK9eXFFECSjdr3EfDR-132" value="Non-geography Student" style="rounded=1;fillColor=#10739E;strokeColor=none;shadow=1;gradientColor=none;fontStyle=1;fontColor=#FFFFFF;fontSize=14;" parent="1" vertex="1">
          <mxGeometry x="1237" y="380" width="220" height="60" as="geometry"/>
        </mxCell>
        <mxCell id="7HnK9eXFFECSjdr3EfDR-133" value="" style="edgeStyle=elbowEdgeStyle;elbow=vertical;strokeWidth=4;endArrow=block;endFill=1;fontStyle=1;strokeColor=#23445D;fontSize=12;rounded=0;exitX=0.5;exitY=1;exitDx=0;exitDy=0;entryX=0.5;entryY=0;entryDx=0;entryDy=0;" parent="1" source="7HnK9eXFFECSjdr3EfDR-131" target="7HnK9eXFFECSjdr3EfDR-132" edge="1">
          <mxGeometry x="161" y="170" width="100" height="100" as="geometry">
            <mxPoint x="841" y="420" as="sourcePoint"/>
            <mxPoint x="1769.5" y="535.5" as="targetPoint"/>
            <Array as="points">
              <mxPoint x="1231" y="330"/>
            </Array>
            <mxPoint x="18" y="-37" as="offset"/>
          </mxGeometry>
        </mxCell>
        <mxCell id="7HnK9eXFFECSjdr3EfDR-134" value="" style="edgeStyle=elbowEdgeStyle;elbow=vertical;strokeWidth=4;endArrow=block;endFill=1;fontStyle=1;strokeColor=#23445D;fontSize=12;rounded=0;exitX=0.5;exitY=1;exitDx=0;exitDy=0;entryX=0.5;entryY=0;entryDx=0;entryDy=0;" parent="1" source="7HnK9eXFFECSjdr3EfDR-131" target="3" edge="1">
          <mxGeometry x="171" y="180" width="100" height="100" as="geometry">
            <mxPoint x="1107" y="310" as="sourcePoint"/>
            <mxPoint x="1357" y="360" as="targetPoint"/>
            <Array as="points">
              <mxPoint x="1097" y="330"/>
            </Array>
            <mxPoint x="18" y="-37" as="offset"/>
          </mxGeometry>
        </mxCell>
        <mxCell id="7HnK9eXFFECSjdr3EfDR-148" value="" style="edgeStyle=elbowEdgeStyle;elbow=vertical;strokeWidth=4;endArrow=block;endFill=1;fontStyle=1;strokeColor=#23445D;fontSize=12;rounded=1;exitX=0.5;exitY=1;exitDx=0;exitDy=0;entryX=1;entryY=0.5;entryDx=0;entryDy=0;" parent="1" source="7HnK9eXFFECSjdr3EfDR-132" target="5" edge="1">
          <mxGeometry x="171" y="180" width="100" height="100" as="geometry">
            <mxPoint x="1106" y="310" as="sourcePoint"/>
            <mxPoint x="1291" y="760" as="targetPoint"/>
            <Array as="points">
              <mxPoint x="1271" y="740"/>
              <mxPoint x="1281" y="840"/>
            </Array>
            <mxPoint x="18" y="-37" as="offset"/>
          </mxGeometry>
        </mxCell>
        <mxCell id="7HnK9eXFFECSjdr3EfDR-150" value="ArcGIS Pro" style="ellipse;whiteSpace=wrap;html=1;rounded=0;shadow=0;align=center;fillColor=#d5e8d4;strokeColor=#82b366;" parent="1" vertex="1">
          <mxGeometry x="371.5" y="995" width="120" height="80" as="geometry"/>
        </mxCell>
        <mxCell id="7HnK9eXFFECSjdr3EfDR-151" value="" style="edgeStyle=elbowEdgeStyle;elbow=vertical;strokeWidth=4;endArrow=block;endFill=1;fontStyle=1;strokeColor=#23445D;exitX=0.5;exitY=1;exitDx=0;exitDy=0;entryX=0;entryY=0.5;entryDx=0;entryDy=0;rounded=0;" parent="1" source="7HnK9eXFFECSjdr3EfDR-120" target="7HnK9eXFFECSjdr3EfDR-150" edge="1">
          <mxGeometry x="232" y="522" width="100" height="100" as="geometry">
            <mxPoint x="1148.5" y="1045" as="sourcePoint"/>
            <mxPoint x="1097.6428571428573" y="1114.9285714285716" as="targetPoint"/>
            <Array as="points">
              <mxPoint x="331" y="1035"/>
              <mxPoint x="1287.5" y="1144.5"/>
            </Array>
            <mxPoint x="2" y="-8" as="offset"/>
          </mxGeometry>
        </mxCell>
        <mxCell id="7HnK9eXFFECSjdr3EfDR-153" value="ArcGIS Pro" style="ellipse;whiteSpace=wrap;html=1;rounded=0;shadow=0;align=center;fillColor=#d5e8d4;strokeColor=#82b366;" parent="1" vertex="1">
          <mxGeometry x="1599.5" y="990" width="120" height="80" as="geometry"/>
        </mxCell>
        <mxCell id="7HnK9eXFFECSjdr3EfDR-154" value="" style="edgeStyle=elbowEdgeStyle;elbow=vertical;strokeWidth=4;endArrow=block;endFill=1;fontStyle=1;strokeColor=#23445D;exitX=0.5;exitY=1;exitDx=0;exitDy=0;entryX=1;entryY=0.5;entryDx=0;entryDy=0;rounded=0;" parent="1" source="7HnK9eXFFECSjdr3EfDR-122" target="7HnK9eXFFECSjdr3EfDR-153" edge="1">
          <mxGeometry x="242" y="532" width="100" height="100" as="geometry">
            <mxPoint x="341" y="970" as="sourcePoint"/>
            <mxPoint x="1491" y="1180" as="targetPoint"/>
            <Array as="points">
              <mxPoint x="1759" y="1030"/>
              <mxPoint x="1297.5" y="1154.5"/>
            </Array>
            <mxPoint x="2" y="-8" as="offset"/>
          </mxGeometry>
        </mxCell>
        <mxCell id="7HnK9eXFFECSjdr3EfDR-161" value="" style="endArrow=block;html=1;labelBackgroundColor=#ffffff;fontSize=11;entryX=0.5;entryY=0;entryDx=0;entryDy=0;exitX=0.5;exitY=1;exitDx=0;exitDy=0;fontStyle=1;strokeColor=#23445D;strokeWidth=4;endFill=1;" parent="1" source="3" target="4" edge="1">
          <mxGeometry width="50" height="50" relative="1" as="geometry">
            <mxPoint x="221" y="1320" as="sourcePoint"/>
            <mxPoint x="271" y="1270" as="targetPoint"/>
          </mxGeometry>
        </mxCell>
        <mxCell id="7HnK9eXFFECSjdr3EfDR-164" value="" style="endArrow=classic;html=1;dashed=1;labelBackgroundColor=#F8CECC;strokeColor=#999999;fontSize=16;entryX=0;entryY=0.5;entryDx=0;entryDy=0;exitX=1;exitY=0.5;exitDx=0;exitDy=0;strokeWidth=2;" parent="1" source="7HnK9eXFFECSjdr3EfDR-72" target="4" edge="1">
          <mxGeometry width="50" height="50" relative="1" as="geometry">
            <mxPoint x="181" y="1320" as="sourcePoint"/>
            <mxPoint x="231" y="1270" as="targetPoint"/>
          </mxGeometry>
        </mxCell>
        <mxCell id="7HnK9eXFFECSjdr3EfDR-165" value="" style="endArrow=classic;html=1;dashed=1;labelBackgroundColor=#F8CECC;strokeColor=#999999;fontSize=16;entryX=1;entryY=0.5;entryDx=0;entryDy=0;exitX=0;exitY=0.5;exitDx=0;exitDy=0;strokeWidth=2;" parent="1" source="7" target="4" edge="1">
          <mxGeometry width="50" height="50" relative="1" as="geometry">
            <mxPoint x="441.5" y="580" as="sourcePoint"/>
            <mxPoint x="741" y="580" as="targetPoint"/>
          </mxGeometry>
        </mxCell>
        <mxCell id="7HnK9eXFFECSjdr3EfDR-166" value="" style="endArrow=block;html=1;labelBackgroundColor=#ffffff;strokeColor=#23445D;fontSize=11;entryX=0.5;entryY=0;entryDx=0;entryDy=0;exitX=0.5;exitY=1;exitDx=0;exitDy=0;rounded=1;fontStyle=1;strokeWidth=4;endFill=1;" parent="1" source="5" target="7HnK9eXFFECSjdr3EfDR-109" edge="1">
          <mxGeometry width="50" height="50" relative="1" as="geometry">
            <mxPoint x="521" y="1290" as="sourcePoint"/>
            <mxPoint x="571" y="1240" as="targetPoint"/>
          </mxGeometry>
        </mxCell>
        <mxCell id="7HnK9eXFFECSjdr3EfDR-167" value="" style="endArrow=block;html=1;labelBackgroundColor=#ffffff;strokeColor=#23445D;fontSize=11;exitX=0.5;exitY=1;exitDx=0;exitDy=0;fontStyle=1;strokeWidth=4;endFill=1;" parent="1" source="7HnK9eXFFECSjdr3EfDR-109" edge="1">
          <mxGeometry width="50" height="50" relative="1" as="geometry">
            <mxPoint x="1071" y="960" as="sourcePoint"/>
            <mxPoint x="1076" y="1090" as="targetPoint"/>
          </mxGeometry>
        </mxCell>
        <mxCell id="7HnK9eXFFECSjdr3EfDR-169" value="For ArcGIS Desktop" style="endArrow=classic;html=1;dashed=1;labelBackgroundColor=#FFFFFF;strokeColor=#999999;fontSize=16;entryX=1;entryY=0.5;entryDx=0;entryDy=0;exitX=0;exitY=0.5;exitDx=0;exitDy=0;strokeWidth=2;fontColor=#666666;" parent="1" source="7HnK9eXFFECSjdr3EfDR-132" target="3" edge="1">
          <mxGeometry width="50" height="50" relative="1" as="geometry">
            <mxPoint x="1669.5" y="576.5" as="sourcePoint"/>
            <mxPoint x="941" y="580" as="targetPoint"/>
          </mxGeometry>
        </mxCell>
        <mxCell id="7HnK9eXFFECSjdr3EfDR-171" value="" style="endArrow=block;html=1;labelBackgroundColor=#ffffff;strokeColor=#23445D;fontSize=11;fontStyle=1;strokeWidth=4;endFill=1;exitX=0.5;exitY=1;exitDx=0;exitDy=0;" parent="1" source="4" target="7HnK9eXFFECSjdr3EfDR-63" edge="1">
          <mxGeometry width="50" height="50" relative="1" as="geometry">
            <mxPoint x="691" y="1230" as="sourcePoint"/>
            <mxPoint x="741" y="1180" as="targetPoint"/>
          </mxGeometry>
        </mxCell>
        <mxCell id="7HnK9eXFFECSjdr3EfDR-172" value="Facilities Staff" style="rounded=1;fillColor=#10739E;strokeColor=none;shadow=1;gradientColor=none;fontStyle=1;fontColor=#FFFFFF;fontSize=14;" parent="1" vertex="1">
          <mxGeometry x="221.5" y="380" width="220" height="60" as="geometry"/>
        </mxCell>
        <mxCell id="7HnK9eXFFECSjdr3EfDR-173" value="" style="edgeStyle=elbowEdgeStyle;elbow=vertical;strokeWidth=4;endArrow=block;endFill=1;fontStyle=1;strokeColor=#23445D;fontSize=16;rounded=1;exitX=0.5;exitY=1;exitDx=0;exitDy=0;entryX=0.5;entryY=0;entryDx=0;entryDy=0;" parent="1" source="7HnK9eXFFECSjdr3EfDR-131" target="7HnK9eXFFECSjdr3EfDR-174" edge="1">
          <mxGeometry x="223.5" y="20" width="100" height="100" as="geometry">
            <mxPoint x="1530" y="270" as="sourcePoint"/>
            <mxPoint x="1832.0000000000005" y="396.5" as="targetPoint"/>
            <Array as="points">
              <mxPoint x="1430" y="330"/>
            </Array>
            <mxPoint x="23" y="-73" as="offset"/>
          </mxGeometry>
        </mxCell>
        <mxCell id="7HnK9eXFFECSjdr3EfDR-174" value="Geography Student " style="rounded=1;fillColor=#10739E;strokeColor=none;shadow=1;gradientColor=none;fontStyle=1;fontColor=#FFFFFF;fontSize=14;" parent="1" vertex="1">
          <mxGeometry x="1649.5" y="380" width="220" height="60" as="geometry"/>
        </mxCell>
        <mxCell id="7HnK9eXFFECSjdr3EfDR-175" value="" style="edgeStyle=elbowEdgeStyle;elbow=vertical;strokeWidth=4;endArrow=block;endFill=1;fontStyle=1;strokeColor=#23445D;fontSize=16;rounded=1;exitX=0.5;exitY=1;exitDx=0;exitDy=0;entryX=0.5;entryY=0;entryDx=0;entryDy=0;" parent="1" source="7HnK9eXFFECSjdr3EfDR-172" target="7HnK9eXFFECSjdr3EfDR-72" edge="1">
          <mxGeometry x="161" y="170" width="100" height="100" as="geometry">
            <mxPoint x="1467.5" y="420" as="sourcePoint"/>
            <mxPoint x="1769.5000000000005" y="546.5" as="targetPoint"/>
            <Array as="points">
              <mxPoint x="333" y="510"/>
            </Array>
            <mxPoint x="23" y="-73" as="offset"/>
          </mxGeometry>
        </mxCell>
      </root>
    </mxGraphModel>
  </diagram>
</mxfile>
